<svg xmlns="http://www.w3.org/2000/svg" version="1.1" xmlns:xlink="http://www.w3.org/1999/xlink" xmlns:svgjs="http://svgjs.dev/svgjs" width="1440" height="560" preserveAspectRatio="none" viewBox="0 0 1440 560"><g mask="url(&quot;#SvgjsMask1009&quot;)" fill="none"><rect width="1440" height="560" x="0" y="0" fill="rgba(222, 238, 255, 1)"></rect><path d="M1347.472,318.723C1365.685,319.757,1382.604,309.15,1391.81,293.401C1401.104,277.503,1402.274,257.407,1392.403,241.861C1383.113,227.23,1364.779,222.661,1347.472,223.574C1331.874,224.397,1317.675,232.565,1310.065,246.206C1302.646,259.504,1304.091,275.284,1311.072,288.818C1318.787,303.775,1330.669,317.769,1347.472,318.723" fill="rgba(28, 83, 142, 0.4)" class="triangle-float1"></path><path d="M1217.84 182.82 a163.55 163.55 0 1 0 327.1 0 a163.55 163.55 0 1 0 -327.1 0z" fill="rgba(28, 83, 142, 0.4)" class="triangle-float1"></path><path d="M108.572,464.037C121.674,463.431,132.486,454.694,138.79,443.192C144.831,432.171,144.818,419.298,139.276,408.018C132.904,395.049,123.015,382.13,108.572,381.69C93.601,381.234,81.663,392.919,74.447,406.044C67.525,418.634,65.799,433.852,73.085,446.234C80.278,458.459,94.403,464.693,108.572,464.037" fill="rgba(28, 83, 142, 0.4)" class="triangle-float1"></path><path d="M762.82 161.42 a185.35 185.35 0 1 0 370.7 0 a185.35 185.35 0 1 0 -370.7 0z" fill="rgba(28, 83, 142, 0.4)" class="triangle-float1"></path><path d="M1229.23 272.23 a178.81 178.81 0 1 0 357.62 0 a178.81 178.81 0 1 0 -357.62 0z" fill="rgba(28, 83, 142, 0.4)" class="triangle-float2"></path><path d="M1178.187,326.445C1234.049,330.841,1290.075,301.12,1315.909,251.396C1340.212,204.619,1319.828,150.97,1292.901,105.652C1266.732,61.609,1229.326,22.68,1178.187,19.607C1121.827,16.221,1061.756,39.606,1036.825,90.266C1013.681,137.295,1046.587,187.346,1073.506,232.32C1099.336,275.475,1128.048,322.499,1178.187,326.445" fill="rgba(28, 83, 142, 0.4)" class="triangle-float3"></path><path d="M354.7 101.33 a120.25 120.25 0 1 0 240.5 0 a120.25 120.25 0 1 0 -240.5 0z" fill="rgba(28, 83, 142, 0.4)" class="triangle-float1"></path><path d="M490.875,374.007C521.766,374.07,552.582,363.066,568.96,336.874C586.305,309.137,588.008,273.485,571.337,245.337C554.953,217.674,522.987,203.454,490.875,205.031C461.304,206.484,438.066,227.116,423.031,252.621C407.702,278.625,398.613,310.206,413.34,336.556C428.349,363.409,460.112,373.944,490.875,374.007" fill="rgba(28, 83, 142, 0.4)" class="triangle-float3"></path><path d="M645.684,631.708C697.346,630.79,748.222,609.168,773.55,564.131C798.447,519.86,790.932,465.03,763.44,422.321C738.156,383.042,692.396,365.761,645.684,365.489C598.407,365.214,551.811,381.636,525.528,420.935C495.989,465.103,483.384,522.657,509.699,568.818C536.208,615.32,592.165,632.659,645.684,631.708" fill="rgba(28, 83, 142, 0.4)" class="triangle-float1"></path><path d="M396.2 201.25 a133.38 133.38 0 1 0 266.76 0 a133.38 133.38 0 1 0 -266.76 0z" fill="rgba(28, 83, 142, 0.4)" class="triangle-float2"></path><path d="M939.62 309.2 a96.86 96.86 0 1 0 193.72 0 a96.86 96.86 0 1 0 -193.72 0z" fill="rgba(28, 83, 142, 0.4)" class="triangle-float3"></path></g><defs><mask id="SvgjsMask1009"><rect width="1440" height="560" fill="#ffffff"></rect></mask><style>
                @keyframes float1 {
                    0%{transform: translate(0, 0)}
                    50%{transform: translate(-10px, 0)}
                    100%{transform: translate(0, 0)}
                }

                .triangle-float1 {
                    animation: float1 5s infinite;
                }

                @keyframes float2 {
                    0%{transform: translate(0, 0)}
                    50%{transform: translate(-5px, -5px)}
                    100%{transform: translate(0, 0)}
                }

                .triangle-float2 {
                    animation: float2 4s infinite;
                }

                @keyframes float3 {
                    0%{transform: translate(0, 0)}
                    50%{transform: translate(0, -10px)}
                    100%{transform: translate(0, 0)}
                }

                .triangle-float3 {
                    animation: float3 6s infinite;
                }
            </style></defs></svg>